<?xml version="1.0" encoding="utf-8"?>
<!-- Generator: Adobe Illustrator 16.2.0, SVG Export Plug-In . SVG Version: 6.00 Build 0)  -->
<!DOCTYPE svg PUBLIC "-//W3C//DTD SVG 1.1//EN" "http://www.w3.org/Graphics/SVG/1.1/DTD/svg11.dtd">
<svg version="1.1" id="Layer_1" xmlns="http://www.w3.org/2000/svg" xmlns:xlink="http://www.w3.org/1999/xlink" x="0px" y="0px"
	 width="612px" height="792px" viewBox="0 0 612 792" enable-background="new 0 0 612 792" xml:space="preserve">
<g>
	<path fill="#030903" d="M398.87,38.86c2.24-2.65,2.52-7.92,6.92-7.65c0.83,3.89,0.52,7.91,0.32,11.85
		c-1.761,12.22-3.17,24.49-5.03,36.69c3.67,2.3,2.2,6.77,1.46,10.23c-0.38-0.4-1.14-1.19-1.521-1.59
		c-0.649,0.31-1.289,0.62-1.92,0.94c-1.449-3.17-3.51-6.45-2.47-10.09c1.97-9.53,3.37-19.15,4.88-28.75
		c0.46-2.97,0.59-5.97,0.57-8.96c-6.96,6.82-10.08,16.6-17.01,23.46c-1.59,0.979-3.471,1.34-5.07,2.27
		c-1.62,1.4-2.59,3.36-3.67,5.17c-5.92,10.83-10.41,22.44-17.15,32.82c-1.5,2.84-4.8,0.74-7.08,0.26
		c-1.85,5.76-4.64,11.14-6.779,16.79c-2.771,6.71-4.48,14.09-9.28,19.75c-1.46,1.97-4.16,1.22-6.24,1.44
		c-4.35,11.42-5.39,23.77-8.88,35.43c-0.66,3.16-4.35,3.08-6.83,3.75c-2.74,11.27-4.72,22.72-6.22,34.22
		c-0.58,2.97-1.25,6.16-3.29,8.51c-1.6,1.14-3.56,1.57-5.36,2.25c-0.81,5.42-0.78,10.9-1.16,16.35c-0.73,8.56,0.06,17.43-3.18,25.58
		c-1.37,9.53,3.38,18.74,2.52,28.31c-0.62,0.32-1.87,0.95-2.5,1.26c-3.47-7.24-4.49-15.3-7.23-22.79
		c-2.46-6.79-4.5-13.76-7.74-20.24c-2.31-4.56-3.55-9.58-6.05-14.04c-1.39-2.96-6.03-1.5-7.14-4.74
		c-6.09-13.58-12.72-26.98-20.521-39.67c-1.35,0.23-2.68,0.55-4.03,0.6c-2.64-1.99-3.86-5.23-5.55-7.97
		c-4.12-7-8.19-14.05-12.82-20.74c-2.73,0.57-6.08,1.45-7.88-1.41c-10.4-13.07-23.48-23.67-36.29-34.27
		c3.51,11.2,8.1,22.03,12.6,32.86c2.01,5.11,5.14,9.69,7.26,14.75c1.54,3.11-1.54,6.09-1.12,9.15c2.27,5.19,5.54,9.89,8.05,14.97
		c1.83,3.78,4.75,7.12,5.63,11.29c-0.33,1.81-1.11,3.49-1.77,5.18c6.39,9.69,13.09,19.21,20.33,28.29c1.84,2.11,0.94,5.03,0.85,7.54
		c0.77,0.8,1.5,1.65,2.27,2.47c-1.75,1.57-3.2,3.46-3.79,5.78l-0.21,0.6c-0.61-5.21-6.33-8.32-5.54-13.76
		c-3.83-12.36-14.28-21-19.67-32.56c-1.02-1.88,0.83-3.54,1.5-5.19c-2.06-5.74-5.4-10.86-8.06-16.32c-2.21-4.38-5.4-8.44-6.08-13.43
		c1.23-0.55,2.47-1.08,3.72-1.58c-7.24-14.81-13.11-30.22-19.1-45.56c-1.04-2.86-2.23-5.68-3.01-8.62c-0.62-1.9,1.23-3.15,2.22-4.47
		c3.41,2.16,6.42,4.85,9.38,7.58c6.35,4.97,12.45,10.22,18.27,15.79c5.44,4.52,9.62,10.29,14.8,15.07c1.28-0.87,2.57-1.72,3.86-2.57
		c1.08,0.85,2.25,1.62,3.16,2.68c6.23,9.05,12,18.42,17.69,27.81c1.24-0.47,2.49-0.94,3.76-1.37c7.86,10.18,12.63,22.24,18.36,33.65
		c1.561,3.17,2.79,6.48,4.22,9.71c1.39,0.01,2.93-0.78,4.25-0.11c4.65,3.39,5.08,9.58,7.43,14.42c3.3,6.57,5.44,13.62,8.39,20.35
		c0.25-2.08,0.42-4.16,0.51-6.25c1-0.48,2-0.95,3.01-1.42c-0.21-14.02,0.61-28.05,2.689-41.92c0.65-0.12,1.94-0.36,2.58-0.48
		c0.84,0.79,1.68,1.61,2.51,2.42c2.96-6.89,3.83-14.36,5.75-21.55c1.341-7.26,3.311-14.38,5.051-21.54
		c0.109-1.57,1.399-2.45,2.529-3.34c0.92,0.67,1.87,1.36,2.801,2.06c1.229-7.36,3.689-14.43,5.079-21.75
		c1.65-6.5,3.99-12.81,5.65-19.32c0.59-0.03,1.78-0.11,2.37-0.14c1.06,1,2.12,2.02,3.22,3.021c3.5-4.7,4.561-10.59,7.271-15.69
		c3.569-8.43,6.029-17.59,11.449-25.08c1.41,0.95,2.801,1.94,4.2,2.94c4.79-7.271,9.05-14.88,12.32-22.97
		c2.25-6.05,5.95-11.39,8.74-17.18c1.96,0.2,3.93,0.44,5.91,0.61C388.32,53.47,393.47,46.08,398.87,38.86L398.87,38.86z"/>
	<path fill="#69AC4A" d="M385.07,64.99c6.93-6.86,10.05-16.64,17.01-23.46c0.02,2.99-0.11,5.99-0.57,8.96
		c-1.51,9.6-2.91,19.22-4.88,28.75c-1.04,3.64,1.021,6.92,2.47,10.09c-2.27,7-5.25,15.73,0.57,21.86
		c-5.52,11.01-12.01,21.7-15.2,33.68c0.41,2.22,2.96,3.32,4.42,4.91c-2.3,5.74-6.119,10.689-8.489,16.38
		c-1.931,4.57-3.99,9.08-5.88,13.66c1.47,1.51,2.96,3.01,4.46,4.51c-2.341,6.25-5.73,12.01-8.86,17.88
		c-4.08,7.55-9.72,14.27-12.47,22.5c1,1.16,2.01,2.33,3.02,3.5c-3.65,6.39-8.26,12.17-11.89,18.57
		c-4.021,6.91-9.38,13.09-12.36,20.58c-0.92,2.64,1.07,5.83-0.899,8.13c-7.36,8.61-15.73,16.32-23.171,24.86
		c-1.1,1.62-3.449,3.37-2.08,5.49c1.61,1.19,3.131-0.22,4.461-1.11c10.76-8.39,20.46-18.12,31.729-25.86
		c0.93,1.14,1.87,2.28,2.82,3.42c11.62-6.65,22.689-14.23,34.609-20.35c2.45-0.96,4.971,0.98,7.5,0.44
		c3.7-0.99,7.101-2.83,10.561-4.46c4.83-2.41,10.06-3.85,15-6.04c2.99-1.22,5.92-2.78,9.13-3.39c3.07,0.97,6.07,3.17,9.439,1.92
		c9.11-2.6,18.04-6.06,27.45-7.47c2.49,0.37,4.49,2.32,7.021,2.52c10.729-1,21.34-3.16,32.06-4.28
		c-8.09,6.17-17.149,10.84-25.83,16.08c-3.79,2-4.239,7.28-8.29,8.88c-6.689,2.99-13.62,5.42-20.25,8.54
		c-3.77,1.44-4.359,6.49-8.29,7.68c-8.069,3.06-16.29,5.69-24.51,8.3c-1.25,2.63-2.01,6.1-5.17,7.05
		c-10.87,4.23-22.54,5.72-33.91,7.99c0.61,2.06,1.57,4,2.811,5.77c-9.5,1.53-19.021,3.29-28.67,3.18c-4.12-0.38-6.69,4.33-10.83,3.5
		c-7.99-0.9-15.99-2.25-24.051-1.45c0.851,2.08,1.44,4.86,4.101,5.24c9.109,2.68,18.63,3.64,27.74,6.38
		c0.38,1.95-0.051,4.64,2.189,5.57c7.311,4.17,15.92,5.06,23.46,8.68c3.38,1.53,3.88,6.06,7.33,7.56c6.66,3.5,14.01,5.58,20.44,9.54
		c3.25,1.59,1.739,6.41,4.75,8.27c4.59,3.48,10.13,5.42,14.81,8.78c-7.02-0.77-13.47-3.84-20.29-5.37
		c-3.18-0.87-5.54,3.42-8.71,1.87c-7.83-2.85-15.36-6.44-22.93-9.9c-1.021,1.38-2.021,2.77-3,4.18
		c-8.271-3.93-16.05-8.79-23.87-13.54c-1.37,0.82-2.72,1.65-4.07,2.48c-9.67-5.09-18.649-11.4-27.02-18.41
		c-1.95-1.79-4.36-2.92-7.04-2.9c2.37,6.86,9.16,11.18,11.13,18.23c0.42,3.23,0.57,6.54,1.86,9.59c2.579,6.59,4.5,13.43,5.67,20.42
		c-6.431-5.87-10.521-13.7-15.05-20.99c-1.841-3.14-6.271-4.11-7.101-7.92c-1.94-6.18-2.56-12.67-3.06-19.09
		c-1.39-0.11-2.77-0.21-4.14-0.31c-8.02,16.33-11.13,35.14-22.479,49.74c-2.62,3.78-7.78,3.31-11.29,5.76
		c-2.05,1.17-3.76,3.25-6.24,3.41c-3.36-2.51-5.85-6.58-10.31-7.26c-6.97-1.86-13.25,2.84-19.89,3.74
		c-25.1-6.47-50.27-13.07-75.91-17.24c-10.13-2.07-20.51-2.26-30.76-3.42c-10.11-0.68-20.26-0.39-30.38-0.68
		c-13.98-0.18-27.89,1.82-41.33,5.61c-10.76,3.24-21.88,5.32-32.28,9.67c-5.18,1.98-9.68,5.3-14.69,7.61
		c-0.99-3.76-1.58-8.29-5.29-10.42c-5.77-3.74-12.95-1.41-18.82,0.82c-6.33,2.56-11.85,6.76-16.9,11.29
		c-1.57,1.65-3.76,3.42-3.58,5.94c1.59,2.101,5.31,3.061,4.76,6.24c-0.23,2.84-0.45,6.229-2.92,8.1
		c-3.71,3.011-7.4,6.061-11.11,9.08c1.7-9.21,5.03-18,7.55-26.99c1.6-5.399,3.05-11.069,2.3-16.729c-0.81-5.12-6.86-7.54-11.47-6.29
		c-7.06,1.69-13.09,6.13-18.87,10.34c-5.96,5.29-12.38,10.23-16.96,16.84c2.65,1.851,7.98,2.431,7.3,6.69
		c-2.02,13.979-7.15,27.229-11.06,40.75c-9.18,1.02-18.45,0.35-27.64,1.32c-6.19,0.64-12.43,0.77-18.58,1.71
		c-10.68,3.02-19.01,10.84-28.86,15.569c-3.93-16.33-3.78-33.35-2.47-50c2.32,1.74,4.5,4.36,7.62,4.41
		c3.94-3.05,5.16-8.31,7.34-12.58c4.28-10.04,9.29-19.76,14.78-29.18c6.6-11.48,13.31-23.42,24.02-31.62
		c2.58,2.86,4.45,8.1,9.14,7.42c4.81-0.46,8.66-3.76,12.81-5.92c6.6-3.55,12.81-7.76,19.32-11.46c7.92-3.84,15.45-8.6,23.92-11.25
		c11.32-3.59,22.4-8.27,34.21-10.05c0.74,3.38,0.49,8.9,5,9.5c15.27,1.27,30.48-1.41,45.75-1.36c15.6-1.38,31.26-0.17,46.81,1.24
		c-0.05,2.81-0.32,5.65,0.14,8.44c2.45,3.37,6.87,4.37,10.66,5.5c22.32,5.28,43.51,14.15,64.91,22.21
		c14.25,6.23,29.09,10.99,43.78,16.06c9.4,3.09,18.74,6.95,28.74,7.56c5.92,0.67,11.86-0.84,17.78,0.14
		c7.22,0.93,15.11,1,21.47-3.08c7.17-4.79,12.58-11.87,16.33-19.57c3.84-7.03,6.75-14.5,9.69-21.93c1.12-2.75,1.46-5.71,1.47-8.65
		c-3.7,1.67-6.63,4.47-9.56,7.19c-2.47,2.37-6.27,1.98-8.97,3.94c-4.41,3.17-8.1,7.42-13.1,9.72c-3.63,1.28-7.53,1.63-11.08,3.15
		c-4.92,2.08-9.85,4.16-14.91,5.89c3.31-3.64,6.86-7.07,10.72-10.12c2.57-2.22,5.6-4.26,6.92-7.52c0.87-1.84,1.4-4.13,3.46-5.01
		c9.03-5.01,18.87-8.32,28.24-12.61c0.09-0.78,0.26-2.32,0.35-3.09c-6.42-0.62-12.42,2.2-18.76,2.6c-5.74,0.41-11.4,1.44-17.11,2.02
		c-3.95,0.49-7.42-2.18-11.35-1.95c-7.85,0.27-15.7,1.8-23.56,0.9c-1.77-0.39-3-1.86-4.47-2.78c-2.22-1.8-5.25-1.62-7.92-2.03
		c-5.9-0.75-11.87-1.05-17.74-2.03c-3.07-0.52-4.21-4.17-7.12-5.07c-3.83-1.29-7.75-2.28-11.61-3.45
		c-6.25-1.88-12.85-2.7-18.79-5.53c5.8-1.3,11.7-2.1,17.62-2.66c4.46-0.41,9.06-0.13,13.37-1.56c2.55-0.85,4.75-2.81,7.54-2.86
		c8.05-0.29,16.08,0.4,24.09,1.16c3.71,0.84,5.979-3.73,9.63-2.9c9.61,1.55,18.95,4.33,28.46,6.33c0.47-1.25,0.95-2.5,1.44-3.75
		c12.47,3,24.3,8.05,36.54,11.84c0.25-0.52,0.76-1.57,1.01-2.1c-6.35-6.95-15-10.98-22.05-17.07c0.4-2.51,0.58-5.32-1.78-6.95
		c-8.98-8-17.69-16.28-25.53-25.41c-0.77-0.82-1.5-1.67-2.27-2.47c0.09-2.51,0.99-5.43-0.85-7.54c-7.24-9.08-13.94-18.6-20.33-28.29
		c0.66-1.69,1.44-3.37,1.77-5.18c-0.88-4.17-3.8-7.51-5.63-11.29c-2.51-5.08-5.78-9.78-8.05-14.97c-0.42-3.06,2.66-6.04,1.12-9.15
		c-2.12-5.06-5.25-9.64-7.26-14.75c-4.5-10.83-9.09-21.66-12.6-32.86c12.81,10.6,25.89,21.2,36.29,34.27
		c1.8,2.86,5.15,1.98,7.88,1.41c4.63,6.69,8.7,13.74,12.82,20.74c1.69,2.74,2.91,5.98,5.55,7.97c1.35-0.05,2.68-0.37,4.03-0.6
		c7.8,12.69,14.43,26.09,20.521,39.67c1.11,3.24,5.75,1.78,7.14,4.74c2.5,4.46,3.74,9.48,6.05,14.04
		c3.24,6.48,5.28,13.45,7.74,20.24c2.74,7.49,3.76,15.55,7.23,22.79c0.63-0.31,1.88-0.94,2.5-1.26c0.86-9.57-3.89-18.78-2.52-28.31
		c3.24-8.15,2.45-17.02,3.18-25.58c0.38-5.45,0.35-10.93,1.16-16.35c1.8-0.68,3.76-1.11,5.36-2.25c2.04-2.35,2.71-5.54,3.29-8.51
		c1.5-11.5,3.479-22.95,6.22-34.22c2.48-0.67,6.17-0.59,6.83-3.75c3.49-11.66,4.53-24.01,8.88-35.43c2.08-0.22,4.78,0.53,6.24-1.44
		c4.8-5.66,6.51-13.04,9.28-19.75c2.14-5.65,4.93-11.03,6.779-16.79c2.28,0.48,5.58,2.58,7.08-0.26
		c6.74-10.38,11.23-21.99,17.15-32.82c1.08-1.81,2.05-3.77,3.67-5.17C381.6,66.33,383.48,65.97,385.07,64.99L385.07,64.99z"/>
	<path fill="#020202" d="M399.1,89.33c0.631-0.32,1.271-0.63,1.92-0.94c0.381,0.4,1.141,1.19,1.521,1.59
		c-1.12,5.44-1.35,11.03-1.41,16.58c1.271,0.05,2.54,0.13,3.83,0.22c-0.14,6.11-5.17,10.72-5.78,16.75
		c-1.319,8.12-4.569,15.92-4.76,24.21c-4.17,10.1-4.58,21.3-8.02,31.66c-0.86,2.36-0.71,4.91-1.17,7.35
		c-2.681,11-5.7,21.97-7.44,33.18c-3.03,10.27-8.96,19.32-12.95,29.2c-1.5,6.94-2.59,13.97-4.24,20.88
		c9.94-5.86,19.271-13.14,30.381-16.74c1.97-0.87,2.27,1.79,3.09,2.92c10.59-4.49,21.54-8.15,31.939-13.11
		c1.54-0.67,3.17-1.18,4.86-1.33c1.86,0.57,1.89,2.67,2.52,4.2c12.12-2.7,23.761-7.24,35.96-9.56c0.521,1.49,0.95,3.02,1.28,4.58
		c4.78-0.59,9.53-1.51,14.36-1.66c6.7-1.12,13.37-2.47,20.05-3.73c2.83-0.99,4.13,2.1,5.15,4.11
		c-3.521,3.66-7.891,6.41-11.061,10.42c-7.569,8.82-15.58,17.3-22.6,26.56c-4.28,1.67-8.16,4.25-11.69,7.16
		c-4.819,5.53-9.52,11.17-14.05,16.94c-4.36,2.25-8.86,4.27-13.54,5.74c-5.62,1.49-7.54,7.58-11.14,11.47
		c-6.63,2.52-13.48,4.55-20.101,7.05c-1.55,2.27-2.63,4.82-3.96,7.22c-4.819,0.74-9.7,1.55-14.21,3.5
		c-3.67,1.72-7.779,2.01-11.58,3.33c2.08,2.01,5.011,2.42,7.63,3.35c0.391,1.44,0.721,2.92,1.04,4.4
		c5.381,1.99,9.851,5.67,14.931,8.28c3.59,2.01,7.46,3.44,11.149,5.28c-0.43,1.79-1.12,3.5-1.81,5.21
		c5.71,3.87,11.92,6.9,18.01,10.12c2.5,1.48,5.65,3,5.65,6.36c-3.891,1.95-8.021,3.63-11.42,6.39
		c-2.87,4.13-4.421,9.089-5.53,13.959c6.04-3.449,12.28-6.55,18.92-8.68c1.63,0.08,3.26,0.22,4.9,0.36
		c-0.5,0.91-0.99,1.83-1.471,2.75c-6.21,2.67-13.22,4.199-18.16,9.109c0.811,1.33,2.04,2.5,2.36,4.09
		c-0.31,3.28-1.22,6.521-2.75,9.431c-3.24,6.29-5.95,12.819-9.1,19.149c-4,7.46-6.41,15.721-11.12,22.811
		c-3.66,2.29-8.15,1.41-12,3.08c6.51,4.96,8.34,13.68,8.39,21.45c0.311,10.81-4.42,20.949-9.96,29.949
		c-4.64,5.24-9.72,10.141-15.28,14.4c1.101,6.72,5.04,13.74,11.79,16.01c8.891,2.08,17.5-2.76,24.25-8.09
		c1.641,0.49,3.28,1,4.92,1.53c-5.52,5.09-12.149,9.29-19.55,10.87c-7.069,0.199-15.109-1.07-20-6.67
		c-2.58-3.12-5.04-6.351-7.35-9.66c-10.271,7.13-21.8,12-33.29,16.77c25.189,0.34,50.39,0.22,75.58,0.67
		c6.29,0.23,12.649-0.359,18.91,0.38c3.739,1.58,6.55,4.721,9.59,7.341c8.46,7.359,15.729,16.119,25.029,22.5
		c-0.84,2.069-1.59,4.18-2.34,6.289c-1.41-0.42-2.81-0.829-4.199-1.22c0.21-0.729,0.43-1.45,0.659-2.16
		c-91.22-0.649-182.439-0.33-273.64-0.87c-14.53-0.02-29.06-0.38-43.58,0.08c-0.62,1.521-1.25,3.04-1.92,4.551
		c-1.46-0.971-2.92-1.94-4.37-2.891c0.72-2.729,1.91-5.64,4.58-6.97c12.74-8.271,24.72-17.76,38.01-25.18
		c-2.21-2.051-3.31-5.16-5.61-6.99c-8.02,2.08-15.73,5.11-23.5,7.96c-7.53,3.04-15.66,4.04-23.23,6.939
		c1.41-2.539,3.14-4.899,5.38-6.77c6.88-2.01,13.74-4.13,20.46-6.63c6.87-2.41,14.25-3.33,20.69-6.92
		c-0.26-1.11-0.52-2.22-0.76-3.32c-5.52,3.19-10.73,7.42-17.1,8.7c-9.89,0.93-19.48-5.45-23.62-14.26
		c-8.48,2.09-16.9,4.55-25.6,5.51c-4.48,0.72-9.07,0.68-13.52,1.57c-5.26,2.439-9,7.51-14.69,9.159
		c-5.55,1.57-11.72,1.33-17.02-1.02c-3.74-1.7-5.9-5.42-9.2-7.69c-4.13-0.96-8.42-1.069-12.64-1.33
		c-4.37-0.35-7.81,2.851-11.38,4.851c-8.99,5.95-20.36,8.7-30.94,6c-5.35-1.59-10.2-4.75-13.92-8.89
		c-3.14-3.45-4.36-8.061-5.77-12.381c-5.62,6.381-12.19,12.23-20.13,15.471c-7.62,3.12-16.64-1.82-19.16-9.4
		c1.61-1.439,3.23-2.86,4.87-4.27c0.41,2.909,0.63,6.64,3.7,8.08c5.11,2.859,11.03,0.409,15.62-2.311
		c6.54-4.45,11.89-10.52,15.94-17.28c-3.58-1.68-8.02-3.17-9.43-7.3c-2.26-7.97,0.03-16.17,1.15-24.109
		c0.94-8.261,2.85-16.36,4.25-24.54c3.39-1.86,7.46-2.051,10.72-4.141c3.2-2.58,6.28-5.37,8.87-8.569
		c-4.58,0.22-9.11,1.029-13.7,1.079c-0.62-4.199,1.3-8.09,2.51-11.989c2.82-8.65,4.61-17.61,7.84-26.141
		c2.59-7.41,6.97-14.58,6.65-22.689c0.16-2.28-1.47-4.45-3.67-5.03c-3.95-1.27-8.07-0.01-11.89,1.11
		c-6.04,1.93-10.57,6.6-15.44,10.411c0.37,3.71,2.66,7.34,1.32,11.159c-2.21,7.44-3.01,15.221-5.43,22.601
		c-1.79,6.41-2.95,13.09-6.01,19.06c-3.87,2.32-8.67,1.641-12.97,2.351c-2.64,0.72-5.56-1.681-4.93-4.42
		c3.45-18.08,9.04-35.65,13.61-53.46c1.45,0.75,2.9,1.51,4.35,2.29c-2.52,8.99-5.85,17.78-7.55,26.99
		c3.71-3.02,7.4-6.069,11.11-9.08c2.47-1.87,2.69-5.26,2.92-8.1c0.55-3.18-3.17-4.14-4.76-6.24c-0.18-2.52,2.01-4.29,3.58-5.94
		c5.05-4.53,10.57-8.73,16.9-11.29c5.87-2.23,13.05-4.56,18.82-0.82c3.71,2.13,4.3,6.66,5.29,10.42c5.01-2.31,9.51-5.63,14.69-7.61
		c10.4-4.35,21.52-6.43,32.28-9.67c13.44-3.79,27.35-5.79,41.33-5.61c10.12,0.29,20.27,0,30.38,0.68
		c10.25,1.16,20.63,1.35,30.76,3.42c25.64,4.17,50.81,10.77,75.91,17.24c6.64-0.9,12.92-5.6,19.89-3.74
		c4.46,0.68,6.95,4.75,10.31,7.26c2.48-0.16,4.19-2.24,6.24-3.41c3.51-2.45,8.67-1.98,11.29-5.76
		c11.35-14.6,14.46-33.41,22.479-49.74c1.37,0.1,2.75,0.2,4.14,0.31c0.5,6.42,1.12,12.91,3.06,19.09c0.83,3.81,5.26,4.78,7.101,7.92
		c4.529,7.29,8.619,15.12,15.05,20.99c-1.17-6.99-3.091-13.83-5.67-20.42c-1.29-3.05-1.44-6.36-1.86-9.59
		c-1.97-7.05-8.76-11.37-11.13-18.23c2.68-0.02,5.09,1.11,7.04,2.9c8.37,7.01,17.35,13.32,27.02,18.41
		c1.351-0.83,2.7-1.66,4.07-2.48c7.82,4.75,15.6,9.61,23.87,13.54c0.979-1.41,1.979-2.8,3-4.18c7.569,3.46,15.1,7.05,22.93,9.9
		c3.17,1.55,5.53-2.74,8.71-1.87c6.82,1.53,13.271,4.6,20.29,5.37c-4.68-3.36-10.22-5.3-14.81-8.78c-3.011-1.86-1.5-6.68-4.75-8.27
		c-6.431-3.96-13.78-6.04-20.44-9.54c-3.45-1.5-3.95-6.03-7.33-7.56c-7.54-3.62-16.149-4.51-23.46-8.68
		c-2.24-0.93-1.81-3.62-2.189-5.57c-9.11-2.74-18.631-3.7-27.74-6.38c-2.66-0.38-3.25-3.16-4.101-5.24
		c8.061-0.8,16.061,0.55,24.051,1.45c4.14,0.83,6.71-3.88,10.83-3.5c9.649,0.11,19.17-1.65,28.67-3.18
		c-1.24-1.77-2.2-3.71-2.811-5.77c11.37-2.27,23.04-3.76,33.91-7.99c3.16-0.95,3.92-4.42,5.17-7.05c8.22-2.61,16.44-5.24,24.51-8.3
		c3.931-1.19,4.521-6.24,8.29-7.68c6.63-3.12,13.561-5.55,20.25-8.54c4.051-1.6,4.5-6.88,8.29-8.88
		c8.681-5.24,17.74-9.91,25.83-16.08c-10.72,1.12-21.33,3.28-32.06,4.28c-2.53-0.2-4.53-2.15-7.021-2.52
		c-9.41,1.41-18.34,4.87-27.45,7.47c-3.369,1.25-6.369-0.95-9.439-1.92c-3.21,0.61-6.14,2.17-9.13,3.39
		c-4.94,2.19-10.17,3.63-15,6.04c-3.46,1.63-6.86,3.47-10.561,4.46c-2.529,0.54-5.05-1.4-7.5-0.44
		c-11.92,6.12-22.989,13.7-34.609,20.35c-0.95-1.14-1.891-2.28-2.82-3.42c-11.27,7.74-20.97,17.47-31.729,25.86
		c-1.33,0.89-2.851,2.3-4.461,1.11c-1.369-2.12,0.98-3.87,2.08-5.49c7.44-8.54,15.811-16.25,23.171-24.86
		c1.97-2.3-0.021-5.49,0.899-8.13c2.98-7.49,8.34-13.67,12.36-20.58c3.63-6.4,8.239-12.18,11.89-18.57
		c-1.01-1.17-2.02-2.34-3.02-3.5c2.75-8.23,8.39-14.95,12.47-22.5c3.13-5.87,6.52-11.63,8.86-17.88c-1.5-1.5-2.99-3-4.46-4.51
		c1.89-4.58,3.949-9.09,5.88-13.66c2.37-5.69,6.189-10.64,8.489-16.38c-1.46-1.59-4.01-2.69-4.42-4.91
		c3.19-11.98,9.681-22.67,15.2-33.68C393.85,105.06,396.83,96.33,399.1,89.33L399.1,89.33z"/>
	<path fill="#020202" d="M229.96,266.16c0.59-2.32,2.04-4.21,3.79-5.78c7.84,9.13,16.55,17.41,25.53,25.41
		c2.36,1.63,2.18,4.44,1.78,6.95c7.05,6.09,15.7,10.12,22.05,17.07c-0.25,0.53-0.76,1.58-1.01,2.1
		c-12.24-3.79-24.07-8.84-36.54-11.84c-0.49,1.25-0.97,2.5-1.44,3.75c-9.51-2-18.85-4.78-28.46-6.33c-3.65-0.83-5.92,3.74-9.63,2.9
		c-8.01-0.76-16.04-1.45-24.09-1.16c-2.79,0.05-4.99,2.01-7.54,2.86c-4.31,1.43-8.91,1.15-13.37,1.56
		c-5.92,0.56-11.82,1.36-17.62,2.66c5.94,2.83,12.54,3.65,18.79,5.53c3.86,1.17,7.78,2.16,11.61,3.45c2.91,0.9,4.05,4.55,7.12,5.07
		c5.87,0.98,11.84,1.28,17.74,2.03c2.67,0.41,5.7,0.23,7.92,2.03c1.47,0.92,2.7,2.39,4.47,2.78c7.86,0.9,15.71-0.63,23.56-0.9
		c3.93-0.23,7.4,2.44,11.35,1.95c5.71-0.58,11.37-1.61,17.11-2.02c6.34-0.4,12.34-3.22,18.76-2.6c-0.09,0.77-0.26,2.31-0.35,3.09
		c-9.37,4.29-19.21,7.6-28.24,12.61c-2.06,0.88-2.59,3.17-3.46,5.01c-1.32,3.26-4.35,5.3-6.92,7.52
		c-3.86,3.05-7.41,6.48-10.72,10.12c5.06-1.73,9.99-3.81,14.91-5.89c3.55-1.52,7.45-1.87,11.08-3.15c5-2.3,8.69-6.55,13.1-9.72
		c2.7-1.96,6.5-1.57,8.97-3.94c2.93-2.72,5.86-5.52,9.56-7.19c-0.01,2.94-0.35,5.9-1.47,8.65c-2.94,7.43-5.85,14.9-9.69,21.93
		c-3.75,7.7-9.16,14.78-16.33,19.57c-6.36,4.08-14.25,4.01-21.47,3.08c-5.92-0.98-11.86,0.53-17.78-0.14
		c-10-0.61-19.34-4.47-28.74-7.56c-14.69-5.07-29.53-9.83-43.78-16.06c-21.4-8.06-42.59-16.93-64.91-22.21
		c-3.79-1.13-8.21-2.13-10.66-5.5c-0.46-2.79-0.19-5.63-0.14-8.44c-15.55-1.41-31.21-2.62-46.81-1.24
		c-15.27-0.05-30.48,2.63-45.75,1.36c-4.51-0.6-4.26-6.12-5-9.5c-11.81,1.78-22.89,6.46-34.21,10.05c-8.47,2.65-16,7.41-23.92,11.25
		c-0.46-0.12-1.36-0.37-1.82-0.49c2.13-2.62,4.37-5.14,6.51-7.75c-0.43-0.04-1.31-0.12-1.74-0.16c9.76-5.25,20.53-8.01,30.89-11.77
		c9.32-3.84,19.13-6.56,29.12-7.91c3.04-0.63,5.82,0.96,8.53,2.09c5.85,2.61,12.2,4.28,17.42,8.14c9.33-0.27,18.63-1.66,27.98-1.63
		c11.63,1.15,23.36-0.32,34.98,0.99c4.33,0.11,8.67,0.9,12.57,2.85c7.68,3.78,15.07,8.12,22.6,12.17c6.99,4,14.56,7.03,20.99,11.96
		c4.46,2.45,9.4,3.86,14.03,5.95c7.36,3.74,15.36,5.94,22.95,9.14c18.49,7.65,37.82,12.97,56.92,18.83
		c4.32,0.78,8.74,0.53,13.11,0.41c-3.33-4.08-8.04-6.92-10.8-11.47c-0.15-4.41,3.83-7.02,6.55-9.87
		c-10.1-2.71-20.19-5.72-30.51-7.43c-2.46-1.59-3.67-4.92-6.71-5.55c-7.28-1.74-13.66-5.95-20.99-7.52
		c-11.05-8.19-21.42-17.26-32.3-25.66c-2.9-2.33-6.56-4.04-8.13-7.64c0.94-2.479,4.09-1.76,6.2-2.27c11.36-0.1,22.13-4.35,33.46-4.9
		c-0.27-1.57-0.52-3.13-0.68-4.7c5.72-1,11.5,0.08,17.25,0.1c6.22,0.43,12.48,0.27,18.66,1.24c0.43-1.36,0.87-2.72,1.33-4.06
		c10,0.54,19.55,4.04,29.31,6.05c0.7-1.38,1.42-2.75,2.16-4.11c1.44,0.5,2.89,1,4.36,1.46
		C239.24,284.42,234.63,275.26,229.96,266.16L229.96,266.16z"/>
	<path fill="#030603" d="M-101,340.7c8.23-2.73,14.93-8.82,23.06-11.77c0.43,0.04,1.31,0.12,1.74,0.16
		c-2.14,2.61-4.38,5.13-6.51,7.75c0.46,0.12,1.36,0.37,1.82,0.49c-6.51,3.7-12.72,7.91-19.32,11.46c-4.15,2.16-8,5.46-12.81,5.92
		c-4.69,0.68-6.56-4.56-9.14-7.42c-10.71,8.2-17.42,20.14-24.02,31.62c-5.49,9.42-10.5,19.14-14.78,29.18
		c-2.18,4.271-3.4,9.53-7.34,12.58c-3.12-0.05-5.3-2.67-7.62-4.41c-1.31,16.65-1.46,33.67,2.47,50
		c9.85-4.729,18.18-12.55,28.86-15.569c6.15-0.94,12.39-1.07,18.58-1.71c9.19-0.971,18.46-0.301,27.64-1.32
		c3.91-13.521,9.04-26.771,11.06-40.75c0.68-4.26-4.65-4.84-7.3-6.69c4.58-6.61,11-11.55,16.96-16.84
		c5.78-4.21,11.81-8.65,18.87-10.34c4.61-1.25,10.66,1.17,11.47,6.29c0.75,5.66-0.7,11.33-2.3,16.729c-1.45-0.78-2.9-1.54-4.35-2.29
		c1.38-4.19,2.35-8.72,1.13-13.06c-0.65-1.51-2.41-2.78-4.07-2.38c-7.08,2.23-13.24,6.45-19.51,10.28c-3.27,2.31-5.9,5.37-8.88,8.03
		c4.15,3.63,3.38,9.54,2.32,14.36c-3.11,13.13-6.83,26.12-11.32,38.85c-0.63,2.61-3.45,2.94-5.68,3.15
		c-13.36,0.78-26.69,1.73-40.04,2.67c-4.02,0.21-7.24,2.88-10.64,4.7c-9.21,5.11-18.28,10.46-27.6,15.34
		c-6.12,4.19-12.72,7.58-19.12,11.31c14.99-1.22,29.6-5.119,44.51-6.909c11.98-2.13,23.86-4.79,35.88-6.65
		c4.96-0.31,10.28-1.08,14.89,1.271c-5.11,13.3-13.61,24.869-21.69,36.47c-8.82,13.54-18.13,27.6-20.15,44.02
		c-1.33,7.32-0.36,17.04,7.07,20.78c3.49,2.28,7.81,1.83,11.75,1.51c4.65-0.37,8.89-2.51,13.06-4.41
		c7.92-3.659,13.37-10.72,19.55-16.6c6.65-6.2,12.05-13.54,17.46-20.79c-3.39-1.64-7.1-3.22-9.26-6.47
		c-1.6-3.95-0.55-8.28,0.08-12.32c2.06-9.81,4.03-19.67,7.12-29.21c1.87-6.57,3.49-13.24,6.26-19.51
		c5.57-1.12,11.22-1.7,16.83-2.521c-0.18,14.79-6.11,28.7-7.5,43.351c-0.52,6.95-1.81,13.88-1.16,20.87
		c-1.64,1.409-3.26,2.83-4.87,4.27c-1.84-5.55-1.33-11.47-1.04-17.189c0.74-9.15,2.74-18.131,4.62-27.091
		c1.23-4.31-3.22-7.02-5.88-9.56c-3.91,10.88-6.09,22.27-8.59,33.53c-0.84,4.83-2.39,10.149-0.28,14.84
		c2.65,2.45,6.67,2.58,9.96,3.81c-3.97,9.57-11.62,16.95-18.08,24.86c4.55,2.62,9.86,3.5,14.39,6.1c3.1,1.92,0.51,5.34-0.35,7.8
		c28.59,8.07,58.83,7.391,88.1,4.141c2.7-0.24,5.4,0.09,8.05,0.59c-1.36,2.87-3.04,5.57-4.71,8.26c5.87-0.71,11.58-2.24,17.33-3.569
		c12.06-2.591,24.04-5.5,35.93-8.79c10.17-3.08,20.23-6.48,30.36-9.67c8.01-3.011,16.44-4.61,24.49-7.48
		c-2.24,1.87-3.97,4.23-5.38,6.77c-8.75,3.24-17.55,6.311-26.43,9.15c-15.27,4.69-30.39,9.94-45.95,13.6
		c-12.16,3.12-24.62,4.841-36.99,6.801c-1.79,0.62-2.86-0.9-3.9-2.04c1.51-2.021,3.07-4.011,4.68-5.96
		c-7.57,0.399-15.16,1.739-22.75,0.77c-9.99-1.27-20.1,0.04-30.09-1.17c-8.01-0.689-16.09-1.41-23.87-3.54
		c-5.65-1.36-11.85-1.149-16.98-4.189c-1.78-0.79-1.56-2.94-1.98-4.511c-12.73,3.99-25.71,7.19-38.33,11.48
		c-3.88,0.689-7.88,2.109-11.82,0.979c-6.35-1.159-11.69-5.87-13.94-11.88c-2.46-6.729-3.27-14.37-1.16-21.3
		c2.39-5.94,3.48-12.36,6.72-17.95c-11.53-8.46-20.63-19.6-30.61-29.729c-1.81-2.17-4.04-4.34-4.7-7.15
		c-0.06-2.91,3.65-2.78,5.48-4.01c-12.06-0.72-24.06,1.26-36.09,1.59c-0.41-1.01-1.08-1.95-1.18-3.04
		c4.04-4.85,9.5-8.09,15.06-10.91c5.31-2.63,10-6.319,15.35-8.88c-1.03-5.55-2.83-10.979-3.1-16.66
		c-1.22-9.85-0.33-19.779-0.04-29.649c0.53-6.24,0.33-12.73,2.85-18.58c3.47-3.17,8.37-0.78,12.53-1.05
		c4.55-11.431,10.75-22.05,17.06-32.57c3.66-5.3,6.67-11.07,11.31-15.63c5.51-7.12,11.69-13.81,19.07-19.03
		C-112.47,337.06-106.88,339.64-101,340.7L-101,340.7z"/>
	<path fill="#FEFEFE" d="M-76.41,388.61c6.27-3.83,12.43-8.05,19.51-10.28c1.66-0.4,3.42,0.87,4.07,2.38
		c1.22,4.34,0.25,8.87-1.13,13.06c-4.57,17.81-10.16,35.38-13.61,53.46c-0.63,2.739,2.29,5.14,4.93,4.42
		c4.3-0.71,9.1-0.03,12.97-2.351c3.06-5.97,4.22-12.649,6.01-19.06c2.42-7.38,3.22-15.16,5.43-22.601
		c1.34-3.819-0.95-7.449-1.32-11.159c4.87-3.811,9.4-8.48,15.44-10.411c3.82-1.12,7.94-2.38,11.89-1.11
		c2.2,0.58,3.83,2.75,3.67,5.03c0.32,8.109-4.06,15.279-6.65,22.689c-3.23,8.53-5.02,17.49-7.84,26.141
		c-1.21,3.899-3.13,7.79-2.51,11.989c4.59-0.05,9.12-0.859,13.7-1.079c-2.59,3.199-5.67,5.989-8.87,8.569
		c-3.26,2.09-7.33,2.28-10.72,4.141c-1.4,8.18-3.31,16.279-4.25,24.54c-1.12,7.939-3.41,16.14-1.15,24.109
		c1.41,4.13,5.85,5.62,9.43,7.3c-4.05,6.761-9.4,12.83-15.94,17.28c-4.59,2.72-10.51,5.17-15.62,2.311
		c-3.07-1.44-3.29-5.171-3.7-8.08c-0.65-6.99,0.64-13.92,1.16-20.87c1.39-14.65,7.32-28.561,7.5-43.351
		c-5.61,0.82-11.26,1.4-16.83,2.521c-2.77,6.27-4.39,12.939-6.26,19.51c-3.09,9.54-5.06,19.4-7.12,29.21
		c-0.63,4.04-1.68,8.37-0.08,12.32c2.16,3.25,5.87,4.83,9.26,6.47c-5.41,7.25-10.81,14.59-17.46,20.79
		c-6.18,5.88-11.63,12.94-19.55,16.6c-4.17,1.9-8.41,4.04-13.06,4.41c-3.94,0.32-8.26,0.771-11.75-1.51
		c-7.43-3.74-8.4-13.46-7.07-20.78c2.02-16.42,11.33-30.479,20.15-44.02c8.08-11.601,16.58-23.17,21.69-36.47
		c-4.61-2.351-9.93-1.58-14.89-1.271c-12.02,1.86-23.9,4.521-35.88,6.65c-14.91,1.79-29.52,5.689-44.51,6.909
		c6.4-3.729,13-7.119,19.12-11.31c9.32-4.88,18.39-10.229,27.6-15.34c3.4-1.82,6.62-4.49,10.64-4.7
		c13.35-0.939,26.68-1.89,40.04-2.67c2.229-0.21,5.05-0.54,5.68-3.15c4.49-12.729,8.21-25.72,11.32-38.85
		c1.06-4.82,1.83-10.73-2.32-14.36C-82.31,393.98-79.68,390.92-76.41,388.61L-76.41,388.61z"/>
	<path fill="#040604" d="M590.561,389.91c11.119-1.6,22.369-1.8,33.489-3.29c1.761,0.11,3.84,2,2.16,3.62
		c-3.34,4.5-6.68,9.12-8.05,14.66c5.57-0.87,10.92-2.931,16.56-3.511c6.08-0.659,12.15-3.13,18.3-1.689
		c12.4,2.13,24.4,6.3,35.711,11.76c10.55,4.28,21.199,8.34,31.569,13.04c6.17-0.8,12.45-1.28,18.71-1.28
		c6.74,0.5,12.07,5.061,18.01,7.78c6.16,3.39,11.931,7.46,17.9,11.19c10.79,5.739,19.87,14.02,29.58,21.34
		c8.07,6.92,16.67,13.239,24.14,20.83c7.431,6.89,15.011,14.319,18.86,23.89c1.35,2.63,0.7,5.83-1.47,7.8
		c-2.36,1.66-5.37,1.36-8.08,1.19c-7.32-1.08-14.37-3.53-21.73-4.36c-6.479-0.95-12.729-3.05-19.18-4.06
		c-3.74,0.31-7.4-0.32-11.03-1.07c-8.33-0.51-16.689-0.26-25.029-0.33c-11.381-0.21-22.601,2.22-33.961,2.21
		c-7.539,0.86-15.159,1.09-22.609,2.63c-13.49,1.28-26.37,5.62-39.4,9.05c-14.79,4.061-28.68,10.61-42.51,17.141
		c-7.5,4.319-14.1,10.02-21.53,14.46c-11.819,9.54-25.45,16.97-35.75,28.28c-4.41,3.93-8.56,8.149-13.109,11.92
		c-5.061,4.96-10.91,9.08-15.45,14.569c-6.24,6.09-12.51,12.141-18.68,18.301c-3.381,3.189-6.19,6.939-9.78,9.909
		c-1.891-0.76-3.76-1.51-5.63-2.26c7.89-7.12,15.29-14.74,22.989-22.06c10.131-10.54,20.9-20.44,30.79-31.221
		c3.96-3.71,7.771-7.58,11.61-11.43c19.38-16.17,39.78-31.71,63.03-41.92c12.899-5.91,26.24-11.13,40.21-13.86
		c7.85-1.8,15.78-3.26,23.76-4.439c31.66-6.53,64.271-10.17,96.57-6.84c9.96,2.819,20.3,3.77,30.37,6.17
		c6.859,1.17,13.789,2.1,20.75,2.47c-3.36-7.28-9.73-12.36-14.86-18.31c-7.13-7.91-15.63-14.351-23.3-21.69
		c-12.21-10.37-25.93-18.73-38.83-28.18c-7.08-5.16-15.04-8.88-22.82-12.811c-0.96,2.73-1.609,5.681-3.4,8.03
		c-6.159,0.69-11.949-2.19-17.459-4.51c-14.15-6.511-28.961-11.391-43.19-17.681c-9.17-3.439-18.31-7.04-27.74-9.699
		c-0.319,1.8-0.62,3.609-0.89,5.43c-11.12-0.35-22.24-0.97-33.36-1.32c-1.76,7.21-4.17,14.24-6.96,21.11
		c-4.27,10.18-12.13,18.74-21.68,24.21c-10.15,5.86-21.87,7.95-32.33,13.04c-0.85,0.92-1.64,1.88-2.42,2.86
		c-2.74-1.78-6.42-2.57-7.91-5.78c6.68-2.16,13.82-2.65,20.29-5.521c13.55-4.359,27.47-11.34,35.03-23.979
		c3.55-4.97,5.319-10.851,7.319-16.55c3-9.131,6.591-18.07,10.61-26.791c-8.55,1.31-17.189,1.86-25.74,3.13
		c-6.76,0.34-14.01-0.31-19.99,3.479c-3.109,2.55-6.52,4.75-10.38,5.99c-1.5-4.77-2.96-10.37-7.949-12.63
		c-3.631-0.54-7.37,0.19-10.74,1.55c-8.311,3.09-16.29,7.11-23.771,11.86c2.78,2.76,4.03,6.88,2.36,10.59
		c-5.1,12.82-12.24,24.72-18.35,37.07c-2.75,0.71-6.44-0.11-8.2,2.609c-1.931,2.49-3.78,5.05-5.891,7.4
		c2.341,0.64,6.17,0.34,6.591,3.51c-5,9.07-10.07,18.13-14.36,27.57c-1.83,4.2-5.64,7.67-5.75,12.49c0.03,1.81-0.42,3.979,0.86,5.5
		c2.34,1.479,5.06,2.189,7.619,3.22c-2.38,8.5-7.42,15.84-13.14,22.43c0.68,1.05,1.35,2.13,2.11,3.15
		c-1.62,1.359-3.21,2.75-4.8,4.14c2.029,2.2,3.949,4.51,5.92,6.78c-3.74-1.97-7.341-4.181-10.98-6.311
		c-7.32,3.841-16.04,6.87-24.25,4.2c-4.2-0.85-7.88-3.17-11.02-6c-4.23-3.37-8.46-6.74-12.53-10.29c-1.5,2.061-2.89,4.23-4.771,5.98
		c-1.64-0.53-3.279-1.04-4.92-1.53c3.41-3.04,6.37-6.53,9.11-10.18c-2.5-1.721-5.93-2.98-6.72-6.25
		c-1.55-5.75,1.75-11.19,3.34-16.551c2.76-8.979,7.89-16.93,11.33-25.63c7.01,1.37,14.49-0.779,21.2,2.021
		c-3.381,11.25-9.54,21.55-12.28,33.04c-1.53,6.71-3.33,13.83-1.11,20.609c1.36,5.91,6.7,10.32,12.521,11.421
		c4.189,0.069,8.92,0.5,12.54-2.061c3.359-2.26,6.949-4.36,9.51-7.57c4.75-5.92,9.81-11.77,12.7-18.899
		c-3.391-2.44-7.08-5.65-7.28-10.13c-0.3-7.96,1.83-15.71,4.2-23.23c2.63-11.21,6.689-22.03,11.55-32.45
		c2.59-6.26,4.1-12.939,7.29-18.949c5.689-13.561,12.04-26.931,19.96-39.331c-8.29,1.31-16.54,3.01-24.92,3.76
		c-5.84,0.39-11.67,1.58-17.16,3.58c-4.33,3.04-7.51,7.67-12.55,9.71c-3.74-4.55-3.76-11.811-9.26-14.9
		c-4.11-0.6-8.28,0.34-12.391,0.601c0.48-0.92,0.971-1.84,1.471-2.75c-1.641-0.14-3.271-0.28-4.9-0.36
		c5.7-1.55,11.87-3.08,17.66-1.02c3.46,1.75,5.95,4.91,7.53,8.4c4.02-1.36,7.63-3.91,11.92-4.399
		c10.069-1.11,19.85-4.03,29.979-4.71c6.24-1.41,12.65-1.5,18.97-2.37c0.431,0.59,1.301,1.76,1.74,2.35
		c-1.11,2.8-2.18,5.61-3.3,8.41c6.95-4.15,14-8.3,21.85-10.51c5.5-2.48,11.92-3.1,17.521-0.56c3.439,1.8,5.149,5.49,6.939,8.75
		c2.271-1.56,4.181-3.71,6.63-4.96C578.28,391.62,584.51,391.24,590.561,389.91L590.561,389.91z"/>
	<path fill="#FEFEFE" d="M395.08,392.62c6.939-0.8,13.45-3.63,20.36-4.58c-1.91,4.76-4.29,9.38-5.24,14.46
		c-1.98,8.98-5.08,17.81-10.19,25.5c-6.149,7.27-13.43,13.73-22.04,17.92c-6.84,3.84-14.79,5.771-20.84,10.93
		c1.05,1.2,1.96,2.92,3.88,2.53c9.46-0.27,19.101,2.97,25.86,9.74c4.2,5.78,5.67,13.27,4.42,20.27
		c-1.18,6.91-2.42,14.261-7.13,19.761c-9.771,12.06-22.09,22.18-36.07,28.97c-8.06,5.04-17.03,8.27-25.47,12.55
		c-10.37,4.28-21.28,7.91-32.61,8.12c-6.28,0.33-12.53-1.71-17.82-5.01c-5.35-3.181-8-9.73-7.67-15.771
		c0.1-7.729,2.82-15.189,6.52-21.899c6.34-11.98,14.73-22.66,22.28-33.86c3.57-4.5,7.19-9.1,9.15-14.56
		c0.7-1.74-0.7-4.28-2.689-4.131c-2.8-0.25-5.61-0.1-8.4-0.22c1.97-2.92,3.77-6.06,6.46-8.39c2.78-1.04,5.76-1.41,8.601-2.29
		c3.689-7.4,7.239-14.87,10.829-22.32c2.551-5.84,5.2-11.88,5.07-18.38c-0.439-2.15-2.32-3.55-3.67-5.12
		c6.4-6.83,13.92-13.25,23.1-15.88c3.961-0.83,8.54-1.23,12.021,1.29c4.77,2.34,4.51,8.37,6.67,12.57
		c6.08,0.46,9.271-6.19,14.771-7.601C381.77,395.41,388.46,394.11,395.08,392.62L395.08,392.62z"/>
	<path fill="#FEFEFE" d="M265.58,392.82c12.47-1.58,24.92-3.26,37.47-4.1c-6.95,9.94-10.99,21.75-11.83,33.85
		c-1.64,8.199-3.13,16.449-4.939,24.63c-4.72,15.68-12.04,31.56-25.4,41.71c-8.41,6.7-20.16,8.91-30.38,5.49
		c-3.49-1.08-5.81-5.21-9.86-3.91c-0.94,4.14-1.84,8.359-4.03,12.05c-2.54,4.44-3.52,9.5-4.07,14.52
		c0.12,4.761,3.76,8.381,7.91,10.21c-6.73,11.58-16.6,21.381-28.33,27.86c-6.7,3.561-14.88-0.84-17.89-7.229
		c-2.32-4.5-1.9-9.71-1.76-14.601c2.72-4.399,6.45-8.09,9.47-12.28c1.37-1.909,2.14-4.149,1.97-6.51
		c-2.16-0.46-4.32-0.85-6.48-1.229c3.06-13.521,9.22-26.11,13.76-39.181c4.44-11.17,9.32-22.17,13.5-33.439
		c4.1-10.641,10.64-20.37,12.78-31.71c0.64-2.851-1.67-5.05-3.42-6.931c4.19-3.329,9.22-5.279,13.72-8.12
		c5.23-1.92,11.35-3.78,16.71-1.28c3.46,1.64,3.28,6.09,4.71,9.16C255.83,401.66,259.71,394.99,265.58,392.82L265.58,392.82z"/>
	<path fill="#FEFEFE" d="M69.64,393c7.85-1.07,15.74-1.9,23.54-3.32c-2.31,3.82-4.69,7.61-6.77,11.57
		c-2.98,6.58-5.15,13.49-7.86,20.19c-2.6,6.55-6.79,12.399-11.78,17.34c-7.14,6.66-20.57,5.1-24.7-4.21
		c2.54-1.561,4.86-3.69,5.86-6.57c2.38-6.19,5.71-11.96,8.37-18.03c-0.08-0.689-0.24-2.08-0.32-2.77c-3.93-0.11-7.8,0.68-11.66,1.22
		c-1.7,1.29-2.61,3.33-3.83,5.04c-2.73,4.57-6.31,8.56-8.68,13.35c-2.76,4.32-5.89,9.591-3.43,14.801c2.34,5.1,8.55,5.3,13.14,7.14
		c-1.18,2.81-2.02,5.76-3.34,8.51c-4.75,2.48-10.35,3.69-14.2,7.71c-4.64,3.811-8.11,8.8-10.65,14.2
		c-2.7,5.51-5.61,10.94-7.44,16.811c-1.82,4.17-3.31,8.5-3.62,13.079c1.47,0.99,2.76,2.811,4.76,2.471
		c2.52-0.63,4.57-2.33,6.44-4.04c9.44-8.681,17.44-18.87,24.16-29.76c1.71-2.29,1.74-5.23,1.9-7.94c-1.18-1.34-2.4-2.62-3.66-3.86
		c4.3-2.05,8.74-3.93,13.49-4.64c6.46-1.6,13.26-2.85,19.88-1.45c4.79,1.101,8.17,6.19,7.44,11.03c-0.78,4.82-3.06,9.189-5.12,13.56
		c-4.86,9.2-10.57,17.96-17.05,26.09c-5.25,5.381-9.45,11.99-16.01,15.931c-7.12,6.2-15.15,11.52-24.05,14.76
		c-3.53,0.86-6.93,2.15-10.42,3.14c-6.56,0.44-13.78,0.11-19.05-4.33c-4.7-3.939-9.08-9.569-8.54-16.069
		c-0.36-3.4,2.45-5.95,3.23-9.101c-1.29-1.1-2.89-1.52-4.51-1.779c0.06-6.73,1.8-13.351,4.15-19.62c0.95-2.9,2.02-5.811,3.79-8.32
		c4.06-5.83,7.32-12.49,13.17-16.81c5.69-4.391,11.44-8.801,17.75-12.28c1.73-1.07,0.28-3.38-1.1-4.05
		c-5.32-2.76-12.08-4.021-15.14-9.78c-1.38-4.21,1.9-8.11,3.91-11.54c4.92-6.14,10.12-12.15,13.8-19.15
		c0.87-1.89,1.04-3.989,1.37-6.01c-0.96-0.88-1.92-1.77-2.87-2.649c5.39-3.45,11.01-6.75,17.24-8.4c3.38-0.62,7.21,0.1,9.73,2.55
		c1.38,1.9,1.91,4.26,2.91,6.37c4.6-1.479,8.48-4.43,12.44-7.09C60.29,393.73,65.16,393.92,69.64,393L69.64,393z"/>
	<path fill="#FEFEFE" d="M149.89,402.01c8.58-6.31,18.86-10.12,29.4-11.44c5.43-0.43,11.85,0.07,15.66,4.48
		c2.02,3.25,2.95,7.11,3.31,10.891c-0.79,15.119-6.98,29.189-12.09,43.239c-4.24,9.811-7.35,20.04-11.02,30.061
		c-3.4,9.91-7.54,20.42-5.22,31.05c1.22,4.08,5.19,6.25,8.94,7.62c-5.97,8.8-13.52,16.95-23.33,21.439
		c-9.21,3.92-22.69-0.75-24.61-11.39c-1.32-16.92,3.09-33.64,8.49-49.52c1.82-5.811,4.53-11.301,6.01-17.21
		c1.88-4.641,3.96-9.23,4.85-14.19c-0.75-2.54-4.08-1.47-4.78,0.53c-5.19,10.31-11.57,19.979-16.61,30.37
		c-4.23,7.72-7.88,15.79-12.86,23.079c-2.87,4.87-5.31,10.021-8.84,14.471c0.37-9.49,2.34-18.82,3.33-28.25
		c1.83-9.59,1.65-19.471,3.97-28.98c0.83-4.12,2.43-8.16,2.12-12.439c-0.92,0-2.75,0-3.67,0c-5.25,9.31-7.48,19.87-11.51,29.699
		c-3.88,11.101-10.32,21.221-13.2,32.681c-1.45,5.62,2.87,10.43,7.58,12.74c-3.01,5.949-7.8,10.739-12.42,15.46
		c-5.54,5.14-12.27,10.699-20.35,9.659c-8.25-1.93-12.71-10.489-14.38-18.14c-0.1-1.63-1.01-3.59,0.32-4.93
		c3.84-5.13,8.8-9.34,12.29-14.74c7.94-11.1,15.74-22.8,19.07-36.2c0.94-3.99-1.26-7.6-2.77-11.09c1.51-7.3,5.88-13.59,9.04-20.24
		c3.04-7.21,6.87-14.09,9.6-21.43c1.39-4.39,2.57-10.01-1.22-13.54c6.43-5.2,14.07-8.42,21.5-11.88c4.95-1.52,10.71-0.45,14.59,3.04
		c2.12,2.46,3.26,5.79,3.23,9.03c-0.33,8-2.31,15.79-3.63,23.649c-1.98,9.99-2.9,20.18-5.46,30.05c1.2,0.25,2.42,0.45,3.66,0.601
		c1.58-1.521,1.9-3.84,2.77-5.771c1.72-5.239,4.79-9.89,6.78-15.01c1.83-4.229,3.45-8.56,5.61-12.63
		c2.87-6.18,6.91-12.061,7.84-18.93C152.24,405.69,150.92,403.81,149.89,402.01L149.89,402.01z"/>
	<path fill="#FEFEFE" d="M543.95,393.88c3.37-1.36,7.109-2.09,10.74-1.55c4.989,2.26,6.449,7.86,7.949,12.63
		c3.86-1.24,7.271-3.44,10.38-5.99c5.98-3.79,13.23-3.14,19.99-3.479c8.551-1.27,17.19-1.82,25.74-3.13
		c-4.02,8.72-7.61,17.66-10.61,26.791c-2,5.699-3.77,11.58-7.319,16.55c-7.561,12.64-21.48,19.62-35.03,23.979
		c-6.47,2.87-13.61,3.36-20.29,5.521c1.49,3.21,5.17,4,7.91,5.78c5.689,3.39,11.54,6.67,16.439,11.189
		c4.9,4.84,5.69,12.22,5.261,18.771c-1.011,9.88-4.12,19.38-7.36,28.72c-2.06,5.58-3.01,11.52-3.36,17.439
		c-0.38,2.29,1.44,4.061,3.061,5.41c2.28,1.55,5.21,1.05,7.819,1.101c0.45-0.08,1.36-0.25,1.811-0.33l0.79-0.29
		c-2.47,5.79-6.2,10.89-9.91,15.93c-3.84,3.85-7.65,7.72-11.61,11.43c-9.89,10.78-20.659,20.681-30.79,31.221
		c-7.699,7.319-15.1,14.939-22.989,22.06c-5.76,5.89-11.69,11.63-18.061,16.87c-1.93,1.61-4.319,2.5-6.67,3.29
		c-1.22-8.28,0.19-16.76,3.38-24.45c4.341-8.979,8.261-18.17,13.15-26.89c3.76-8.73,9.09-16.69,12.62-25.53
		c5.46-13.45,12.52-26.15,18.59-39.32c6.84-15.08,14.479-29.79,21.17-44.93c0.94-3.64,3.55-7.2,2.59-11.07
		c-2.47-6.06-9.01-8.83-14.67-11.09c-2.86-0.99-4.67,2.221-5.79,4.311c-4.649,10.05-9.96,19.81-13.97,30.149
		c-1.33,3.86-2.561,7.9-2.391,12.03c0.931,3.2,4.19,4.69,6.5,6.78c-7.75,8.67-14.829,18.87-26.029,23.37
		c-6.69,3.689-14.5-0.65-18.96-5.87c-0.761-1.021-1.431-2.101-2.11-3.15c5.72-6.59,10.76-13.93,13.14-22.43
		c-2.56-1.03-5.279-1.74-7.619-3.22c-1.28-1.521-0.83-3.69-0.86-5.5c0.11-4.82,3.92-8.29,5.75-12.49
		c4.29-9.44,9.36-18.5,14.36-27.57c-0.421-3.17-4.25-2.87-6.591-3.51c2.11-2.351,3.96-4.91,5.891-7.4
		c1.76-2.72,5.45-1.899,8.2-2.609c6.109-12.351,13.25-24.25,18.35-37.07c1.67-3.71,0.42-7.83-2.36-10.59
		C527.66,400.99,535.64,396.97,543.95,393.88L543.95,393.88z"/>
	<path fill="#FEFEFE" d="M489.62,397.87c8.38-0.75,16.63-2.45,24.92-3.76c-7.92,12.4-14.271,25.77-19.96,39.331
		c-3.19,6.01-4.7,12.689-7.29,18.949c-4.86,10.42-8.92,21.24-11.55,32.45c-2.37,7.521-4.5,15.271-4.2,23.23
		c0.2,4.479,3.89,7.689,7.28,10.13c-2.891,7.13-7.95,12.979-12.7,18.899c-2.561,3.21-6.15,5.311-9.51,7.57
		c-3.62,2.561-8.351,2.13-12.54,2.061c-5.82-1.101-11.16-5.511-12.521-11.421c-2.22-6.779-0.42-13.899,1.11-20.609
		c2.74-11.49,8.899-21.79,12.28-33.04c-6.71-2.8-14.19-0.65-21.2-2.021c-3.44,8.7-8.57,16.65-11.33,25.63
		c-1.59,5.36-4.89,10.801-3.34,16.551c0.79,3.27,4.22,4.529,6.72,6.25c-2.74,3.649-5.7,7.14-9.11,10.18
		c-6.75,5.33-15.359,10.17-24.25,8.09c-6.75-2.27-10.689-9.29-11.79-16.01c5.561-4.26,10.641-9.16,15.28-14.4
		c5.54-9,10.271-19.14,9.96-29.949c-0.05-7.771-1.88-16.49-8.39-21.45c3.85-1.67,8.34-0.79,12-3.08
		c4.71-7.09,7.12-15.351,11.12-22.811c3.149-6.33,5.859-12.859,9.1-19.149c1.53-2.91,2.44-6.15,2.75-9.431
		c-0.32-1.59-1.55-2.76-2.36-4.09c4.94-4.91,11.95-6.439,18.16-9.109c4.11-0.261,8.28-1.2,12.391-0.601
		c5.5,3.09,5.52,10.351,9.26,14.9c5.04-2.04,8.22-6.67,12.55-9.71C477.95,399.45,483.78,398.26,489.62,397.87L489.62,397.87z"/>
	<path fill="#69AC4A" d="M651.05,405.65c9.431,2.659,18.57,6.26,27.74,9.699c14.229,6.29,29.04,11.17,43.19,17.681
		c5.51,2.319,11.3,5.2,17.459,4.51c1.791-2.35,2.44-5.3,3.4-8.03c7.78,3.931,15.74,7.65,22.82,12.811
		c12.9,9.449,26.62,17.81,38.83,28.18c7.67,7.34,16.17,13.78,23.3,21.69c5.13,5.949,11.5,11.029,14.86,18.31
		c-6.961-0.37-13.891-1.3-20.75-2.47c-10.07-2.4-20.41-3.351-30.37-6.17c-32.3-3.33-64.91,0.31-96.57,6.84
		c-7.979,1.18-15.91,2.64-23.76,4.439c-13.97,2.73-27.311,7.95-40.21,13.86c-23.25,10.21-43.65,25.75-63.03,41.92
		c3.71-5.04,7.44-10.14,9.91-15.93c9.34-6.46,19.26-12.021,28.46-18.67c4.95-3.471,9.84-7.061,15.229-9.86
		c6.591-3.82,13.971-6.94,18.86-13.03c4.8-5.58,4.48-14.88-0.85-20c-7.641-7.819-17.49-13.68-28.271-15.81
		c-7.74-2.05-15.71-2.9-23.58-4.24c-6.52-0.979-13.109-2.13-19.71-1.3c-4.18,0.56-8.399-0.13-12.18-1.96
		c10.46-5.09,22.18-7.18,32.33-13.04c9.55-5.47,17.41-14.03,21.68-24.21c2.79-6.87,5.2-13.9,6.96-21.11
		c11.12,0.351,22.24,0.971,33.36,1.32C650.43,409.26,650.73,407.45,651.05,405.65L651.05,405.65z"/>
	<path fill="#030202" d="M264.42,410.55c1.57-0.689,2.88,0.7,4.24,1.29c-12.77,18.7-12.26,43.141-25,61.84
		c-1.72,3.66-6.11,4.38-9.49,5.771c-2.56,1.149-5.07-0.65-6.94-2.23c3.88-13.489,9.19-26.529,13.12-40.02
		c2.66-6.55,5.03-13.311,8.15-19.63C253.82,415.26,258.82,412.17,264.42,410.55L264.42,410.55z"/>
	<path fill="#030303" d="M368.69,411.85c2.069-0.89,4.319-0.439,6.449,0c-1.39,3.341-2.149,6.86-2.699,10.42
		c-1.58,6.051-4.421,11.891-8.521,16.641c-3.57,3.46-7.2,6.95-11.41,9.63c-1.649,1.12-3.96,1.86-5.8,0.78
		c-1.26-2.16,0.34-4.38,1.07-6.4c1.88-4.16,3.069-8.57,4.54-12.88c1.609-4.8,2.229-10.14,5.52-14.2
		C361.15,413.82,365.09,413.23,368.69,411.85L368.69,411.85z"/>
	<path fill="#040704" d="M567.49,414.74c1.66-0.74,3.47-0.471,5.2-0.061c-2.36,7.4-5.4,14.561-8.261,21.761
		c-4.529,7.989-10.609,15.75-19.069,19.72c-2.601,1.46-5.23,0.27-6.601-2.16c3.91-6.51,6.311-13.73,9.88-20.4
		c2.551-4.79,3.83-10.279,7.24-14.59C559.79,417.72,563.65,416.25,567.49,414.74L567.49,414.74z"/>
	<path fill="#69AC4A" d="M506.86,422.8c1.38-3.17,5.39-2.75,8.229-3.26c-2.359,7.8-7.3,14.38-11.05,21.51
		c-1.61,3.01-3.57,5.811-5.46,8.66c-1.23,0.06-2.46,0.12-3.67,0.18C497.96,440.49,502.37,431.58,506.86,422.8L506.86,422.8z"/>
	<path fill="#69AC4A" d="M557.06,427.02c1.04-3.239,4.141-4.789,7.08-5.96c-2.739,10.15-7.449,20.421-16.04,26.91
		C551.67,441.24,554.26,434.08,557.06,427.02L557.06,427.02z"/>
	<path fill="#040604" d="M441.52,445.45c4.341-7.26,8.021-14.88,12.591-22.01c1.18,0.229,2.37,0.479,3.56,0.77
		c0.18,2.35,0.22,4.771-0.7,6.99c-3.029,8.59-5.989,17.229-7.91,26.149c-1.689,5.15-2.909,10.641-5.71,15.29
		c-5.18-2.359-11.27,0.48-16.149-2.54C431.83,461.8,437.46,454.07,441.52,445.45L441.52,445.45z"/>
	<path fill="#69AC4A" d="M440.55,456.54c2.33-3.81,3.9-8.05,6.54-11.68c-2.029,7.31-5.05,14.33-6.609,21.79
		c-1.9,0.069-3.79,0.13-5.671,0.18C436.49,463.27,438.52,459.9,440.55,456.54L440.55,456.54z"/>
	<path fill="#69AC4A" d="M374.78,456.39c7.5-1.819,14.71-4.529,22.1-6.699c-0.85,2.54-1.86,5.029-2.93,7.489
		c-4,0.271-8.15,0.19-11.851,1.96C379.311,460.84,376.84,457.95,374.78,456.39L374.78,456.39z"/>
	<path fill="#030403" d="M341.38,460.33c1.2-1.18,2.97-0.35,4.32,0.08c4.87,1.99,10.43,3.96,13.17,8.8c1.28,2.71,2.41,5.64,2.3,8.69
		c-0.97,5.77-2.14,11.75-5.78,16.5c-4.89,8.21-11.72,14.92-17.8,22.22c-5.729,6.14-12.16,11.59-18.62,16.939
		c-0.63-0.29-1.909-0.869-2.55-1.17c-1.28-4.96,1.59-9.47,2.96-14.069c3.44-8.391,7.25-16.67,9.84-25.38
		C333.69,482.22,337.42,471.23,341.38,460.33L341.38,460.33z"/>
	<path fill="#69AC4A" d="M345.03,465.82c5.83,1.229,10.75,6.17,11.479,12.149c-0.16,3.971-1.43,7.82-2.96,11.46
		c-1.069,2.21-2.05,5.13-4.88,5.45c-5.479,1.19-10.939,2.43-16.43,3.54C335.82,487.31,339.97,476.34,345.03,465.82L345.03,465.82z"
		/>
	<path fill="#69AC4A" d="M487.65,467.73c0.619-0.15,1.869-0.431,2.489-0.57c-1.43,3.84-3.64,7.31-5.659,10.859
		C485.45,474.56,486.48,471.12,487.65,467.73L487.65,467.73z"/>
	<path fill="#020101" d="M553.41,470.98c0.78-0.98,1.57-1.94,2.42-2.86c3.78,1.83,8,2.52,12.18,1.96
		c6.601-0.83,13.19,0.32,19.71,1.3c7.87,1.34,15.84,2.19,23.58,4.24c10.78,2.13,20.63,7.99,28.271,15.81
		c5.33,5.12,5.649,14.42,0.85,20c-4.89,6.09-12.27,9.21-18.86,13.03c-5.39,2.8-10.279,6.39-15.229,9.86
		c-9.2,6.649-19.12,12.21-28.46,18.67l-0.79,0.29c-1.07-1.32-1.68-1.21-1.811,0.33c-2.609-0.051-5.539,0.449-7.819-1.101
		c-1.62-1.35-3.44-3.12-3.061-5.41c0.351-5.92,1.301-11.859,3.36-17.439c3.24-9.34,6.35-18.84,7.36-28.72
		c0.43-6.551-0.36-13.931-5.261-18.771C564.95,477.65,559.1,474.37,553.41,470.98L553.41,470.98z"/>
	<path fill="#030201" d="M528.88,474.82c1.12-2.09,2.93-5.301,5.79-4.311c5.66,2.26,12.2,5.03,14.67,11.09
		c0.96,3.87-1.649,7.431-2.59,11.07c-6.69,15.14-14.33,29.85-21.17,44.93c-6.07,13.17-13.13,25.87-18.59,39.32
		c-3.53,8.84-8.86,16.8-12.62,25.53c-4.89,8.72-8.81,17.91-13.15,26.89c-3.189,7.69-4.6,16.17-3.38,24.45
		c2.351-0.79,4.74-1.68,6.67-3.29c6.37-5.24,12.301-10.98,18.061-16.87c1.87,0.75,3.739,1.5,5.63,2.26
		c-5.01,5.42-10.09,10.771-15.21,16.091c-3.99,3.149-7.74,7.229-12.931,8.26c-4.489-0.38-7.26-4.311-9.6-7.69
		c-6.11-8.819-13.45-16.78-18.979-25.99c-2.171-3.01-1.271-6.93-1.261-10.369c0.061-0.36,0.17-1.07,0.23-1.431
		c0.05-0.43,0.16-1.29,0.21-1.729c0.17-0.59,0.49-1.771,0.66-2.36l-0.181-0.89c0.32-0.42,0.95-1.25,1.271-1.67
		c0.59-0.94,1.01-1.95,1.27-3.021c0.21-0.56,0.641-1.68,0.851-2.24l0.13-0.869c4.56-11.79,11.189-22.601,16.03-34.261
		c2.189-4.6,4.729-9.029,6.96-13.609c-0.841-0.65-1.681-1.28-2.5-1.91c-1.971-2.271-3.891-4.58-5.92-6.78
		c1.59-1.39,3.18-2.78,4.8-4.14c4.46,5.22,12.27,9.56,18.96,5.87c11.2-4.5,18.279-14.7,26.029-23.37c-2.31-2.09-5.569-3.58-6.5-6.78
		c-0.17-4.13,1.061-8.17,2.391-12.03C518.92,494.63,524.23,484.87,528.88,474.82L528.88,474.82z"/>
	<path fill="#6DB04E" d="M-128.07,481.66c5.96-0.771,11.85-2.03,17.83-2.62c-8.36,16.71-19.79,31.59-28.98,47.82
		c-7.37-5.42-13.32-12.44-19.89-18.74c-3.59-3.521-7-7.21-10.28-11.021c1.42-1.09,2.84-2.18,4.24-3.3
		c-0.67-2.28-1.38-4.54-2.03-6.819C-154.16,485.12-141.17,482.96-128.07,481.66L-128.07,481.66z"/>
	<path fill="#FCFCFB" d="M573.02,479.15c7.891-0.391,15.601,3.09,20.86,8.89c2.021,2.4,2.51,6.04,0.89,8.79
		c-4.209,8.62-12.27,14.14-18.569,21.05c0.7-7.07,3.27-13.81,4.16-20.85C581.14,490.24,577.05,484.2,573.02,479.15L573.02,479.15z"
		/>
	<path fill="#69AC4A" d="M-69.84,480.33c2.66,2.54,7.11,5.25,5.88,9.56c-1.88,8.96-3.88,17.94-4.62,27.091
		c-0.29,5.72-0.8,11.64,1.04,17.189c2.52,7.58,11.54,12.521,19.16,9.4c7.94-3.24,14.51-9.09,20.13-15.471
		c1.41,4.32,2.63,8.931,5.77,12.381c3.72,4.14,8.57,7.3,13.92,8.89c10.58,2.7,21.95-0.05,30.94-6c3.57-2,7.01-5.2,11.38-4.851
		c4.22,0.261,8.51,0.37,12.64,1.33c3.3,2.271,5.46,5.99,9.2,7.69c5.3,2.35,11.47,2.59,17.02,1.02c5.69-1.649,9.43-6.72,14.69-9.159
		c4.45-0.891,9.04-0.851,13.52-1.57c8.7-0.96,17.12-3.42,25.6-5.51c4.14,8.81,13.73,15.189,23.62,14.26
		c6.37-1.28,11.58-5.51,17.1-8.7c0.24,1.101,0.5,2.21,0.76,3.32c-6.44,3.59-13.82,4.51-20.69,6.92c-6.72,2.5-13.58,4.62-20.46,6.63
		c-8.05,2.87-16.479,4.47-24.49,7.48c-10.13,3.189-20.19,6.59-30.36,9.67c-11.89,3.29-23.87,6.199-35.93,8.79
		c-5.75,1.329-11.46,2.859-17.33,3.569c1.67-2.689,3.35-5.39,4.71-8.26c-2.65-0.5-5.35-0.83-8.05-0.59
		c-29.27,3.25-59.51,3.93-88.1-4.141c0.86-2.46,3.45-5.88,0.35-7.8c-4.53-2.6-9.84-3.479-14.39-6.1
		c6.46-7.91,14.11-15.29,18.08-24.86c-3.29-1.229-7.31-1.359-9.96-3.81c-2.11-4.69-0.56-10.01,0.28-14.84
		C-75.93,502.6-73.75,491.21-69.84,480.33L-69.84,480.33z"/>
	<path fill="#69AC4A" d="M426.64,488.26c0.7-1.59,1.45-3.17,2.19-4.74c3.05,0.11,6.09,0.351,9.13,0.721
		c-0.34,0.96-0.67,1.93-0.99,2.899C433.58,487.91,430.11,488.36,426.64,488.26L426.64,488.26z"/>
	<path fill="#69AC4A" d="M269.38,490.35c4.9-1.6,9.7-3.54,14.72-4.77c-4.47,8.08-10.93,14.8-15.86,22.58
		c-1.89,3.79-6.53,3.95-10.09,5.07c-7.74,1.649-15.2,4.359-22.91,6.1c-5.01,1.26-10.25,3.65-15.43,1.81
		c-3.84-2.899-1.06-7.92-0.24-11.62c6.6-2.939,13.41-5.369,20.25-7.71c4.71-1.689,10-1.159,14.51-3.51
		C259.6,496.11,263.93,492.12,269.38,490.35L269.38,490.35z"/>
	<path fill="#FDFDFD" d="M243.03,522.95c6.51-2.3,13.04-4.76,19.89-5.87c-4.77,10.21-8.35,22.52-3.19,33.28
		c-17.01-0.12-34.02-0.28-51.03-0.311c4.34-3.45,8.54-7.069,13.01-10.359C228.91,534.24,235.37,527.78,243.03,522.95L243.03,522.95z
		"/>
	<path fill="#FCFCFC" d="M416.37,533.8c4.07,3.55,8.3,6.92,12.53,10.29c3.14,2.83,6.819,5.15,11.02,6
		c8.21,2.67,16.93-0.359,24.25-4.2c3.64,2.13,7.24,4.341,10.98,6.311c0.819,0.63,1.659,1.26,2.5,1.91
		c-2.23,4.58-4.771,9.01-6.96,13.609c-4.841,11.66-11.471,22.471-16.03,34.261c-0.21-0.36-0.61-1.07-0.811-1.431
		c1.28-4.149,2.83-8.21,4.33-12.28c0.75-2.109,1.5-4.22,2.34-6.289c-9.3-6.381-16.569-15.141-25.029-22.5
		c-3.04-2.62-5.851-5.761-9.59-7.341c-6.261-0.739-12.62-0.149-18.91-0.38c-25.19-0.45-50.391-0.33-75.58-0.67
		c11.49-4.77,23.02-9.64,33.29-16.77c2.31,3.31,4.77,6.54,7.35,9.66c4.891,5.6,12.931,6.869,20,6.67
		c7.4-1.58,14.03-5.78,19.55-10.87C413.48,538.03,414.87,535.86,416.37,533.8L416.37,533.8z"/>
	<path fill="#040604" d="M575.27,553.61c0.131-1.54,0.74-1.65,1.811-0.33C576.63,553.36,575.72,553.53,575.27,553.61L575.27,553.61z
		"/>
	<path fill="#FCFCFC" d="M137.42,584.1c14.52-0.46,29.05-0.1,43.58-0.08c91.2,0.54,182.42,0.221,273.64,0.87
		c-0.229,0.71-0.449,1.431-0.659,2.16c-6.471,17.55-12.971,35.101-19.23,52.73c-2.14,0.92-4.49,0.72-6.74,0.71
		c-34.1-0.061-68.189-0.971-102.29-1.01c-12.899-0.4-25.83,0.21-38.71-0.69c-28.01,0.05-56.01-0.65-84.02-0.66
		c-9.33,0.14-18.66-0.37-27.99-0.38c-15.66-0.59-31.33-0.08-46.99-0.52c-4.46,0.039-8.94-0.36-13.36,0.31
		c6.29-16.55,13.76-32.66,20.85-48.89C136.17,587.14,136.8,585.62,137.42,584.1L137.42,584.1z"/>
	<path fill="#050505" d="M109.52,635.29c7.02-16.59,14.7-32.9,21.61-49.53c1.45,0.95,2.91,1.92,4.37,2.891
		c-7.09,16.229-14.56,32.34-20.85,48.89c4.42-0.67,8.9-0.271,13.36-0.31c15.66,0.439,31.33-0.07,46.99,0.52
		c9.33,0.01,18.66,0.52,27.99,0.38c28.01,0.01,56.01,0.71,84.02,0.66c12.88,0.9,25.811,0.29,38.71,0.69
		c11.351,1.979,22.841,1.039,34.271,0.8c19.149,0.46,38.29,0.29,57.439,0.279c5.57,0.04,11.15,0.4,16.73,0.07
		c0.149-0.21,0.439-0.63,0.59-0.85c6.26-17.63,12.76-35.181,19.23-52.73c1.39,0.391,2.789,0.8,4.199,1.22
		c-1.5,4.07-3.05,8.131-4.33,12.28c-1.029,1.57-1.83,3.29-2.229,5.141c-0.8,2.97-1.83,5.869-2.79,8.79
		c-0.11,0.329-0.34,1-0.45,1.329c-1.52,3.391-2.689,6.931-3.84,10.46c-0.04,0.11-0.11,0.32-0.14,0.421
		c-1.851,5.72-3.721,11.43-5.851,17.05c-2.67,1.319-5.7,1.12-8.58,1.16c-7-0.08-14-0.061-20.989-0.271
		c-9.03,0.71-18-2.25-26.99-0.399c-22.57-0.681-45.2-0.32-67.79-0.65c-28.95-0.08-57.9-0.7-86.85-1.03
		c-10.37-1.74-20.9-0.53-31.36-0.89C182,641.01,168,641.98,154,641.67c-15.16-0.16-30.42,0.57-45.49-1.47
		c-0.05-1.57,0.22-3.061,0.82-4.48C109.38,635.61,109.47,635.4,109.52,635.29L109.52,635.29z"/>
	<path fill="#040404" d="M142.83,596.82c1.35-3.03,1.96-6.57,4.24-9.07c2.97-0.38,6-0.01,8.92,0.61
		c-2.01,7.43-6.46,13.84-9.08,21.04c4.79,0.33,9.59,0.05,14.38,0c3-7.33,5.41-14.971,9.64-21.73c3.02,0.01,6.05-0.02,9.08,0.23
		c-0.24,1.869-0.7,3.729-1.61,5.399c-4.13,7.75-8.12,15.62-11.12,23.891c-1.85,5.359-4.62,10.34-6.86,15.54
		c-3.22-0.23-6.93,0.859-9.46-1.711c3.24-5.789,6.48-11.659,8.77-17.899c-4.85,0.18-9.7,0.33-14.55,0.2
		c-2.84,6.12-5.32,12.449-8.6,18.35c-2.79,1.44-7.12,1.13-9.35-1.51c2.52-5.99,6.1-11.47,8.45-17.53
		C137.73,607.21,140.75,602.22,142.83,596.82L142.83,596.82z"/>
	<path fill="#040404" d="M189.64,588.31c5.77-0.069,11.53,0.41,17.31,0.33c1.68-0.189,2.94,1.011,4.19,1.94
		c-0.55,0.5-1.65,1.51-2.2,2.01c-3.55-0.35-7.12-0.31-10.68-0.229c-3.07,5.54-5.51,11.39-8.15,17.149c3.31,0.21,6.64,0.54,9.85,1.4
		c0.38,0.54,1.13,1.63,1.51,2.17c-4.41,0.39-8.84,0.05-13.25,0.26c-2.57,4.91-4.03,10.3-6.4,15.311c4.77,0.21,9.83-1.08,14.23,1.449
		c-1.34,0.82-2.44,2.37-4.17,2.24c-6.73,0.41-13.51,0.69-20.22-0.03c-1.75-5.31,3.27-9.409,4.96-14.04
		c0.06-0.119,0.19-0.369,0.25-0.489l0.27-0.61c0.06-0.13,0.17-0.38,0.22-0.51C181.14,607.08,185.24,597.63,189.64,588.31
		L189.64,588.31z"/>
	<path fill="#040404" d="M216.84,593.75c1.04-2.17,1.67-5.07,4.17-6.02c2.31,0.13,4.59,0.59,6.86,1.06
		c-0.29,11.35-3.27,22.36-4.87,33.55c6.59-8.47,11.6-17.97,17.33-27.01c1.74-2.49,3.17-5.48,6.03-6.87
		c3.27-0.44,6.63-0.58,9.86,0.28c-5.16,14.85-12.14,29-17.71,43.7c-2.84,0.29-5.96,0.699-8.36-1.21
		c3.84-11.851,10.36-22.62,14.66-34.28c-2.45,2.18-4.59,4.76-6.19,7.63c-3.35,5.93-6.65,11.91-10.58,17.479
		c-2.03,2.891-3.93,5.9-5.14,9.25c-1.55-0.189-3.08-0.409-4.61-0.67c-0.26-10.33,4.69-20.04,4.54-30.409
		c-3.09,8.529-6.31,17.069-10.18,25.289c-0.77,2.101-1.39,4.381-3.13,5.94c-2.08,2.32-6.11,2.19-8.33,0.271
		c1.34-6.881,5.68-12.641,8.22-19.07c0.04-0.11,0.13-0.32,0.18-0.43C212.01,606.07,214.78,600.04,216.84,593.75L216.84,593.75z"/>
	<path fill="#040404" d="M263.49,588.32c6.51-1.28,13.02,0.489,19.54-0.19c1.979-0.21,3.87,0.53,5.74,1.101
		c0.93,4.75-2.01,8.77-3.59,13c-2.66,5.85-4.09,12.439-8.6,17.26c-5.34,0.04-10.67,0.59-15.94,1.38c-2.84,3.08-3.74,7.57-5.49,11.34
		c-2.65,2.6-7.96,1.86-8.65-2.19C252.41,616.23,258.06,602.32,263.49,588.32L263.49,588.32z"/>
	<path fill="#020202" d="M295.99,588.89c3.58-0.239,7.18-0.09,10.77,0.04c-0.229,0.15-0.68,0.45-0.91,0.601
		c-3.02-0.11-6.05-0.28-9.05-0.57L295.99,588.89L295.99,588.89z"/>
	<path fill="#020202" d="M419.11,589.51c2.39-0.02,5.029,0.7,7.21-0.649c-0.431,0.38-0.851,0.779-1.25,1.199
		c-1.65-0.119-3.3-0.29-4.94-0.449C419.87,589.59,419.36,589.54,419.11,589.51L419.11,589.51z"/>
	<path fill="#040404" d="M296.8,588.96c3,0.29,6.03,0.46,9.05,0.57c-0.21,4.569-2.91,8.51-4.02,12.89
		c4.63-0.39,9.36-1.15,13.939,0.08c1.28,0.16,2.631,1.09,2.761,2.48c0.04,3.449-1.67,6.55-2.771,9.729
		c-2.109,5.86-4.12,11.76-6.24,17.61c-7.419,0.76-14.91,0.649-22.33,0.21c-2.16-0.09-3.3-2.311-4.82-3.521
		C288.38,616.11,292.02,602.33,296.8,588.96L296.8,588.96z"/>
	<path fill="#040404" d="M420.13,589.61c1.641,0.159,3.29,0.33,4.94,0.449c1.229,2.341,0.05,4.841-0.71,7.131
		c-1.13,2.8-2.08,5.67-3.2,8.47l-0.34,0.75c4.689-0.021,9.38-0.12,14.069-0.19c1.69,0.03,1.78,2.391,1.15,3.55
		c-2.58,8.12-5.78,16.011-9.07,23.87c-2.13-0.17-4.31,0.17-6.399-0.279c-0.94-1.971,0.33-3.96,0.83-5.841
		c1.77-5.789,4.449-11.229,6.85-16.77c0.12-0.25,0.37-0.75,0.49-0.99c-2.99-0.24-5.971-0.569-8.971-0.529
		c-2.619,8.369-5.899,16.5-8.989,24.699c-1.92-0.26-3.82-0.68-5.521-1.6c1.24-6.3,4.221-12.08,5.75-18.311
		c1.36-5.399,3.57-10.539,4.82-15.97C416.71,594.99,417.23,591.49,420.13,589.61L420.13,589.61z"/>
	<path fill="#020202" d="M271.99,590.96c0.95-1.31,1.479-1.15,1.59,0.48C273.18,591.32,272.39,591.08,271.99,590.96L271.99,590.96z"
		/>
	<path fill="#FAFAFA" d="M271.99,590.96c0.4,0.12,1.19,0.36,1.59,0.48c1.77,0.149,3.53,0.449,5.3,0.79
		c-0.82,3.43-1.82,6.829-3.13,10.119c-0.04,0.101-0.11,0.29-0.15,0.391c-1.06,3-2.39,5.89-3.82,8.72c-0.04,0.09-0.12,0.28-0.16,0.37
		c-0.45,1.27-0.83,2.57-1.14,3.89c-2.87-0.279-5.74-0.2-8.6-0.069C265.02,607.32,268.89,599.3,271.99,590.96L271.99,590.96z"/>
	<path fill="#FFFFFF" d="M451.62,605.69c0.399-1.851,1.2-3.57,2.229-5.141c0.2,0.36,0.601,1.07,0.811,1.431l-0.13,0.869
		c-0.21,0.561-0.641,1.681-0.851,2.24C453.17,605.24,452.13,605.54,451.62,605.69L451.62,605.69z"/>
	<path fill="#FDFDFD" d="M275.6,602.74c0.04-0.101,0.11-0.29,0.15-0.391C275.71,602.45,275.64,602.64,275.6,602.74L275.6,602.74z"/>
	<path fill="#020202" d="M326.2,603.14c7.25-0.52,14.58-0.68,21.81,0.23l-0.779-0.061C340.23,602.89,333.21,603.26,326.2,603.14
		L326.2,603.14z"/>
	<path fill="#020202" d="M356.21,602.75c5.16-0.31,10.38,0.14,15.57-0.07l-0.25,0.16c-5.04,0.22-10.09,0.311-15.12-0.09H356.21
		L356.21,602.75z"/>
	<path fill="#050505" d="M326.2,603.14c7.01,0.12,14.03-0.25,21.03,0.17c0.71,0.261,2.13,0.761,2.84,1.011
		c-0.311,3.979-2.681,7.35-3.801,11.109c-2.18,5.45-3.689,11.221-6.789,16.25c-8.601-0.149-17.221,0.36-25.801-0.43
		c2.311-6.07,5.341-11.86,7.641-17.95c3.08-0.229,6.14,0.15,9.199,0.55c2.95,0.42,5.94,0.36,8.91,0.15
		c0.86-2.26,1.62-4.56,2.221-6.9c-5.03-0.659-10.21-0.13-15.13-1.479C326.44,605,326.28,603.76,326.2,603.14L326.2,603.14z"/>
	<path fill="#040404" d="M356.41,602.75c5.03,0.4,10.08,0.31,15.12,0.09c0.479,0.44,1.45,1.3,1.93,1.74
		c0.17,0.51,0.51,1.53,0.68,2.04c-3.67,0.49-7.35,0.79-11.04,0.87c-3.439,8.609-5.8,17.59-9.149,26.22l-0.58-0.11
		c-2.61-0.55-6.33-0.439-7.09-3.67C349.18,620.72,352.44,611.57,356.41,602.75L356.41,602.75z"/>
	<path fill="#FCFCFC" d="M453.68,605.09c0.21-0.56,0.641-1.68,0.851-2.24C454.32,603.41,453.89,604.53,453.68,605.09L453.68,605.09z
		"/>
	<path fill="#FCFCFC" d="M13.18,604.19c1.62-0.53,2.17,0.029,1.66,1.659C13.2,606.36,12.65,605.81,13.18,604.19L13.18,604.19z"/>
	<path fill="#020202" d="M390.63,604.93c5.7-0.27,11.47-0.13,17.12-0.18c-5.439,0.34-10.89,0.6-16.34,0.25L390.63,604.93
		L390.63,604.93z"/>
	<path fill="#050505" d="M391.41,605c5.45,0.35,10.9,0.09,16.34-0.25c1.52,0.7,2.25,2.47,3.34,3.71c-4.2,0.3-8.39-0.38-12.58-0.05
		c-2.819,6.729-4.609,13.87-7.75,20.479c3.98-0.14,7.971,0.141,11.9,0.761c1.55,1.189-0.05,2.54-0.61,3.79
		c-6.439-0.761-12.83,0.939-19.26,0.229c-0.37-1.99-1.2-4.18-0.05-6.06C386.6,620.47,387.64,612.13,391.41,605L391.41,605z"/>
	<path fill="#020202" d="M421.16,605.66c4.56,0.25,9.229-0.49,13.729,0.56c-4.689,0.07-9.38,0.17-14.069,0.19L421.16,605.66
		L421.16,605.66z"/>
	<path fill="#FCFCFC" d="M451.62,605.69c0.51-0.15,1.55-0.45,2.06-0.601c-0.26,1.07-0.68,2.08-1.27,3.021
		C452.21,607.5,451.811,606.29,451.62,605.69L451.62,605.69z"/>
	<path fill="#FBFBFB" d="M291.94,629.63c2-8.32,5.45-16.229,8.74-24.1c3.35,0.09,6.709,0.08,10.06,0.229
		c-2.521,8.09-6.3,15.71-8.82,23.8C298.59,629.68,295.26,629.73,291.94,629.63L291.94,629.63z"/>
	<path fill="#FFFFFF" d="M448.83,614.48c0.96-2.921,1.99-5.82,2.79-8.79c0.19,0.6,0.59,1.81,0.79,2.42
		c-0.36,0.199-1.08,0.609-1.43,0.819l0.159,0.851l0.181,0.89c-0.17,0.59-0.49,1.771-0.66,2.36c-0.05,0.439-0.16,1.3-0.21,1.729
		C450.05,614.69,449.23,614.55,448.83,614.48L448.83,614.48z"/>
	<path fill="#FCFCFC" d="M450.98,608.93c0.35-0.21,1.069-0.62,1.43-0.819c-0.32,0.42-0.95,1.25-1.271,1.67L450.98,608.93
		L450.98,608.93z"/>
	<path fill="#FEFEFE" d="M419.77,609.23c3-0.04,5.98,0.289,8.971,0.529c-0.12,0.24-0.37,0.74-0.49,0.99
		C425.36,610.67,422.521,610.06,419.77,609.23L419.77,609.23z"/>
	<path fill="#FDFDFD" d="M271.62,611.83c0.04-0.09,0.12-0.28,0.16-0.37C271.74,611.55,271.66,611.74,271.62,611.83L271.62,611.83z"
		/>
	<path fill="#FCFCFC" d="M450.66,613.03c0.17-0.59,0.49-1.771,0.66-2.36C451.15,611.26,450.83,612.44,450.66,613.03L450.66,613.03z"
		/>
	<path fill="#020202" d="M209.41,612.66c0.04-0.11,0.13-0.32,0.18-0.43C209.54,612.34,209.45,612.55,209.41,612.66L209.41,612.66z"
		/>
	<path fill="#020202" d="M330.52,613.85c2.961-0.029,5.94-0.01,8.91,0.15C336.46,614.21,333.47,614.27,330.52,613.85L330.52,613.85z
		"/>
	<path fill="#FCFCFC" d="M448.38,615.81c0.11-0.329,0.34-1,0.45-1.329c0.4,0.069,1.22,0.21,1.62,0.279
		c-0.061,0.36-0.17,1.07-0.23,1.431C449.76,616.09,448.84,615.9,448.38,615.81L448.38,615.81z"/>
	<path fill="#020202" d="M177.14,617.17c0.06-0.13,0.17-0.38,0.22-0.51C177.31,616.79,177.2,617.04,177.14,617.17L177.14,617.17z"/>
	<path fill="#FBFBFB" d="M327.95,616.71c3.39-0.01,6.77,0.25,10.13,0.7c-1.59,3.83-3.39,7.57-5.311,11.25
		c-3.249,0.26-6.51,0.12-9.739-0.12C324.01,624.35,325.78,620.4,327.95,616.71L327.95,616.71z"/>
	<path fill="#020202" d="M176.62,618.27c0.06-0.119,0.19-0.369,0.25-0.489C176.81,617.9,176.68,618.15,176.62,618.27L176.62,618.27z
		"/>
	<path fill="#FCFCFC" d="M444.4,626.69c0.029-0.101,0.1-0.311,0.14-0.421C444.5,626.38,444.43,626.59,444.4,626.69L444.4,626.69z"/>
	<path fill="#0A0A0A" d="M368.94,629.77c2.3-0.939,4.76-0.88,7.05,0.07c-0.09,0.78-0.25,2.34-0.34,3.12
		C372.8,634,370.01,632.55,368.94,629.77L368.94,629.77z"/>
	<path fill="#040404" d="M313.68,631.25c8.58,0.79,17.2,0.28,25.801,0.43c-6.721,1.58-13.75,0.57-20.591,0.811
		C317.03,632.71,315.35,631.89,313.68,631.25L313.68,631.25z"/>
	<path fill="#FAFAFA" d="M353.37,633.6l0.58,0.11C353.8,633.69,353.521,633.63,353.37,633.6L353.37,633.6z"/>
	<path fill="#FCFCFC" d="M109.33,635.72c0.05-0.109,0.14-0.319,0.19-0.43C109.47,635.4,109.38,635.61,109.33,635.72L109.33,635.72z"
		/>
	<path fill="#040404" d="M325.72,639.48c34.101,0.039,68.19,0.949,102.29,1.01c2.25,0.01,4.601,0.21,6.74-0.71
		c-0.15,0.22-0.44,0.64-0.59,0.85c-5.58,0.33-11.16-0.03-16.73-0.07c-19.149,0.011-38.29,0.181-57.439-0.279
		C348.561,640.52,337.07,641.46,325.72,639.48L325.72,639.48z"/>
	<path fill="#040404" d="M108.51,640.2c15.07,2.04,30.33,1.31,45.49,1.47c14,0.311,28-0.66,41.99-0.01
		c10.46,0.359,20.99-0.851,31.36,0.89c-27.44-0.39-54.9-0.41-82.35-0.51c-6.99-0.1-14,0.3-20.96-0.5
		C118.87,640.95,113.43,642.31,108.51,640.2L108.51,640.2z"/>
	<path fill="#FCFCFC" d="M314.2,643.58c22.59,0.33,45.22-0.03,67.79,0.65c8.99-1.851,17.96,1.109,26.99,0.399
		c6.989,0.21,13.989,0.19,20.989,0.271c2.88-0.04,5.91,0.159,8.58-1.16c-0.17,0.359-0.5,1.08-0.66,1.439
		c-9.64,0.44-19.29-0.029-28.93,0.221c-5.71,0.25-11.27-1.58-16.97-1.261c-8.351-0.1-16.68,0.32-25,0.88
		c-9.71-0.729-19.5-1.189-29.2-0.159c-8.3,1.149-16.58-1.311-24.89-0.181C313.22,644.4,313.88,643.86,314.2,643.58L314.2,643.58z"/>
</g>
</svg>
